<svg width="32" height="32" viewBox="0 0 32 32" fill="none" xmlns="http://www.w3.org/2000/svg">
<g clip-path="url(#clip0_416_1070)">
<path d="M4 4V31C3.99987 31.1737 4.04497 31.3443 4.13085 31.4953C4.21673 31.6462 4.34043 31.7722 4.48978 31.8608C4.63913 31.9494 4.80898 31.9976 4.98261 32.0006C5.15624 32.0036 5.32766 31.9614 5.48 31.878L16 26.138L26.52 31.878C26.6723 31.9614 26.8438 32.0036 27.0174 32.0006C27.191 31.9976 27.3609 31.9494 27.5102 31.8608C27.6596 31.7722 27.7833 31.6462 27.8692 31.4953C27.955 31.3443 28.0001 31.1737 28 31V4C28 2.93913 27.5786 1.92172 26.8284 1.17157C26.0783 0.421427 25.0609 0 24 0L8 0C6.93913 0 5.92172 0.421427 5.17157 1.17157C4.42143 1.92172 4 2.93913 4 4Z" fill="#555555"/>
<path d="M11 10.6129L15.9577 17L22 8" stroke="#555555" stroke-width="3"/>
</g>
<defs>
<clipPath id="clip0_416_1070">
<rect width="32" height="32" fill="white"/>
</clipPath>
</defs>
</svg>
