<svg width="8" height="8" viewBox="0 0 8 8" fill="none" xmlns="http://www.w3.org/2000/svg">
<g clip-path="url(#clip0_927_1908)">
<path d="M1 1V7.75C0.999968 7.79341 1.01124 7.83609 1.03271 7.87382C1.05418 7.91155 1.08511 7.94304 1.12245 7.96519C1.15978 7.98734 1.20225 7.99939 1.24565 8.00014C1.28906 8.0009 1.33191 7.99034 1.37 7.9695L4 6.5345L6.63 7.9695C6.66809 7.99034 6.71094 8.0009 6.75435 8.00014C6.79775 7.99939 6.84022 7.98734 6.87755 7.96519C6.91489 7.94304 6.94582 7.91155 6.96729 7.87382C6.98876 7.83609 7.00003 7.79341 7 7.75V1C7 0.734784 6.89464 0.48043 6.70711 0.292893C6.51957 0.105357 6.26522 0 6 0L2 0C1.73478 0 1.48043 0.105357 1.29289 0.292893C1.10536 0.48043 1 0.734784 1 1V1Z" fill="black"/>
</g>
<defs>
<clipPath id="clip0_927_1908">
<rect width="8" height="8" fill="white"/>
</clipPath>
</defs>
</svg>
