<svg width="55" height="55" viewBox="0 0 55 55" fill="none" xmlns="http://www.w3.org/2000/svg">
<g clip-path="url(#clip0_412_1070)">
<path fill-rule="evenodd" clip-rule="evenodd" d="M6.875 53.2812V6.875C6.875 5.05164 7.59933 3.30295 8.88864 2.01364C10.178 0.724328 11.9266 0 13.75 0L41.25 0C43.0734 0 44.822 0.724328 46.1114 2.01364C47.4007 3.30295 48.125 5.05164 48.125 6.875V53.2812C48.1252 53.5797 48.0477 53.8731 47.9001 54.1325C47.7525 54.3919 47.5399 54.6084 47.2832 54.7607C47.0265 54.913 46.7346 54.9958 46.4361 55.001C46.1377 55.0062 45.8431 54.9336 45.5812 54.7903L27.5 44.9247L9.41875 54.7903C9.15691 54.9336 8.86228 55.0062 8.56386 55.001C8.26544 54.9958 7.97351 54.913 7.71682 54.7607C7.46012 54.6084 7.2475 54.3919 7.0999 54.1325C6.95229 53.8731 6.87478 53.5797 6.875 53.2812ZM37.3106 20.1231C37.6334 19.8004 37.8147 19.3627 37.8147 18.9062C37.8147 18.4498 37.6334 18.0121 37.3106 17.6894C36.9879 17.3666 36.5502 17.1853 36.0938 17.1853C35.6373 17.1853 35.1996 17.3666 34.8769 17.6894L25.7812 26.7884L21.8419 22.8456C21.6821 22.6858 21.4924 22.5591 21.2836 22.4726C21.0748 22.3861 20.851 22.3416 20.625 22.3416C20.399 22.3416 20.1752 22.3861 19.9664 22.4726C19.7576 22.5591 19.5679 22.6858 19.4081 22.8456C19.2483 23.0054 19.1216 23.1951 19.0351 23.4039C18.9486 23.6127 18.9041 23.8365 18.9041 24.0625C18.9041 24.2885 18.9486 24.5123 19.0351 24.7211C19.1216 24.9299 19.2483 25.1196 19.4081 25.2794L24.5644 30.4356C24.724 30.5957 24.9137 30.7227 25.1225 30.8093C25.3313 30.896 25.5552 30.9406 25.7812 30.9406C26.0073 30.9406 26.2312 30.896 26.44 30.8093C26.6488 30.7227 26.8385 30.5957 26.9981 30.4356L37.3106 20.1231Z" fill="#555555"/>
</g>
<defs>
<clipPath id="clip0_412_1070">
<rect width="55" height="55" fill="white"/>
</clipPath>
</defs>
</svg>
