<svg width="64" height="64" viewBox="0 0 64 64" fill="none" xmlns="http://www.w3.org/2000/svg">
<path fill-rule="evenodd" clip-rule="evenodd" d="M32 2.66663C15.8 2.66663 2.66669 15.8 2.66669 32C2.66669 48.2 15.8 61.3333 32 61.3333C48.2 61.3333 61.3334 48.2 61.3334 32C61.3334 15.8 48.2 2.66663 32 2.66663ZM44.7147 27.04C44.9488 26.7723 45.1271 26.4606 45.2389 26.1231C45.3508 25.7856 45.394 25.4291 45.3661 25.0746C45.3381 24.7201 45.2396 24.3748 45.0762 24.059C44.9129 23.7431 44.688 23.4632 44.4148 23.2355C44.1417 23.0079 43.8257 22.8372 43.4856 22.7335C43.1455 22.6297 42.7881 22.5951 42.4344 22.6315C42.0807 22.6679 41.7378 22.7748 41.426 22.9456C41.1142 23.1165 40.8397 23.3481 40.6187 23.6266L29.152 37.384L23.2187 31.448C22.7157 30.9622 22.0421 30.6934 21.343 30.6995C20.6438 30.7056 19.9749 30.986 19.4805 31.4804C18.9861 31.9749 18.7056 32.6437 18.6996 33.3429C18.6935 34.0421 18.9623 34.7157 19.448 35.2186L27.448 43.2186C27.71 43.4805 28.0237 43.6849 28.3691 43.8188C28.7145 43.9527 29.084 44.0132 29.4541 43.9964C29.8241 43.9796 30.1866 43.8858 30.5185 43.7212C30.8503 43.5565 31.1442 43.3245 31.3814 43.04L44.7147 27.04Z" fill="#0FA958"/>
</svg>
