<svg width="64" height="64" viewBox="0 0 64 64" fill="none" xmlns="http://www.w3.org/2000/svg">
<path fill-rule="evenodd" clip-rule="evenodd" d="M19.9067 2.84263C23.0347 2.69863 24.032 2.66663 32 2.66663C39.968 2.66663 40.9654 2.70129 44.0907 2.84263C47.216 2.98396 49.3494 3.48263 51.216 4.20529C53.1707 4.94396 54.944 6.09863 56.4107 7.59196C57.904 9.05596 59.056 10.8266 59.792 12.784C60.5174 14.6506 61.0134 16.784 61.1574 19.904C61.3014 23.0373 61.3334 24.0346 61.3334 32C61.3334 39.968 61.2987 40.9653 61.1574 44.0933C61.016 47.2133 60.5174 49.3466 59.792 51.2133C59.056 53.1709 57.9021 54.9445 56.4107 56.4106C54.944 57.904 53.1707 59.056 51.216 59.792C49.3494 60.5173 47.216 61.0133 44.096 61.1573C40.9654 61.3013 39.968 61.3333 32 61.3333C24.032 61.3333 23.0347 61.2986 19.9067 61.1573C16.7867 61.016 14.6534 60.5173 12.7867 59.792C10.8291 59.0559 9.05554 57.902 7.58935 56.4106C6.09703 54.9457 4.94219 53.173 4.20535 51.216C3.48269 49.3493 2.98669 47.216 2.84269 44.096C2.69869 40.9626 2.66669 39.9653 2.66669 32C2.66669 24.032 2.70135 23.0346 2.84269 19.9093C2.98402 16.784 3.48269 14.6506 4.20535 12.784C4.94328 10.8268 6.099 9.05413 7.59202 7.58929C9.05613 6.0973 10.8279 4.94248 12.784 4.20529C14.6507 3.48263 16.784 2.98663 19.904 2.84263H19.9067ZM43.8534 8.12263C40.76 7.98129 39.832 7.95196 32 7.95196C24.168 7.95196 23.24 7.98129 20.1467 8.12263C17.2854 8.25329 15.7334 8.73063 14.6987 9.13329C13.3307 9.66663 12.352 10.2986 11.3254 11.3253C10.3521 12.2721 9.60317 13.4247 9.13335 14.6986C8.73069 15.7333 8.25335 17.2853 8.12269 20.1466C7.98135 23.24 7.95202 24.168 7.95202 32C7.95202 39.832 7.98135 40.76 8.12269 43.8533C8.25335 46.7146 8.73069 48.2666 9.13335 49.3013C9.60269 50.5733 10.352 51.728 11.3254 52.6746C12.272 53.648 13.4267 54.3973 14.6987 54.8666C15.7334 55.2693 17.2854 55.7466 20.1467 55.8773C23.24 56.0186 24.1654 56.048 32 56.048C39.8347 56.048 40.76 56.0186 43.8534 55.8773C46.7147 55.7466 48.2667 55.2693 49.3014 54.8666C50.6694 54.3333 51.648 53.7013 52.6747 52.6746C53.648 51.728 54.3974 50.5733 54.8667 49.3013C55.2694 48.2666 55.7467 46.7146 55.8774 43.8533C56.0187 40.76 56.048 39.832 56.048 32C56.048 24.168 56.0187 23.24 55.8774 20.1466C55.7467 17.2853 55.2694 15.7333 54.8667 14.6986C54.3334 13.3306 53.7014 12.352 52.6747 11.3253C51.7278 10.3521 50.5752 9.60319 49.3014 9.13329C48.2667 8.73063 46.7147 8.25329 43.8534 8.12263V8.12263ZM28.2534 41.0426C30.3458 41.9136 32.6757 42.0312 34.8452 41.3752C37.0146 40.7192 38.8891 39.3304 40.1483 37.4459C41.4076 35.5615 41.9735 33.2983 41.7495 31.0429C41.5255 28.7875 40.5254 26.6799 38.92 25.08C37.8967 24.0572 36.6593 23.2741 35.2969 22.787C33.9346 22.2999 32.4812 22.1209 31.0413 22.2629C29.6015 22.4049 28.2111 22.8644 26.9702 23.6083C25.7292 24.3522 24.6687 25.3619 23.8648 26.5649C23.061 27.7678 22.5339 29.1341 22.3214 30.5652C22.1089 31.9963 22.2164 33.4567 22.6361 34.8413C23.0558 36.2259 23.7773 37.5003 24.7486 38.5726C25.7199 39.6448 26.9169 40.4885 28.2534 41.0426ZM21.3387 21.3386C22.7388 19.9386 24.4009 18.828 26.2301 18.0703C28.0594 17.3125 30.02 16.9226 32 16.9226C33.98 16.9226 35.9406 17.3125 37.7699 18.0703C39.5992 18.828 41.2613 19.9386 42.6614 21.3386C44.0614 22.7387 45.172 24.4008 45.9297 26.2301C46.6874 28.0594 47.0774 30.02 47.0774 32C47.0774 33.98 46.6874 35.9406 45.9297 37.7698C45.172 39.5991 44.0614 41.2612 42.6614 42.6613C39.8338 45.4889 35.9988 47.0774 32 47.0774C28.0012 47.0774 24.1662 45.4889 21.3387 42.6613C18.5111 39.8337 16.9226 35.9987 16.9226 32C16.9226 28.0012 18.5111 24.1662 21.3387 21.3386V21.3386ZM50.4214 19.168C50.7683 18.8407 51.0461 18.4471 51.2382 18.0106C51.4303 17.574 51.5328 17.1033 51.5398 16.6264C51.5468 16.1495 51.4579 15.6761 51.2786 15.2341C51.0993 14.7922 50.8332 14.3907 50.4959 14.0534C50.1587 13.7161 49.7572 13.45 49.3152 13.2707C48.8732 13.0914 48.3998 13.0026 47.9229 13.0095C47.446 13.0165 46.9753 13.119 46.5388 13.3111C46.1022 13.5033 45.7086 13.781 45.3814 14.128C44.7448 14.8027 44.3964 15.699 44.4099 16.6264C44.4234 17.5539 44.7979 18.4396 45.4538 19.0955C46.1097 19.7514 46.9954 20.1259 47.9229 20.1394C48.8504 20.1529 49.7466 19.8045 50.4214 19.168V19.168Z" fill="#699BF7"/>
</svg>
