<svg width="82" height="64" viewBox="0 0 82 64" fill="none" xmlns="http://www.w3.org/2000/svg">
<path d="M18.478 63.854C18.496 63.866 18.52 63.86 18.538 63.872C18.6797 63.9507 18.838 63.9946 19 64C19.0892 63.9998 19.178 63.9877 19.264 63.964L41 58.032L62.736 63.964C62.822 63.9877 62.9108 63.9998 63 64C63.1617 63.9951 63.3197 63.9504 63.46 63.87C63.48 63.86 63.502 63.864 63.52 63.852L81.52 52.852C81.706 52.7378 81.8495 52.566 81.929 52.3628C82.0084 52.1596 82.0193 51.936 81.96 51.726L71.992 16.726C71.9512 16.5802 71.8778 16.4456 71.7774 16.3324C71.6769 16.2192 71.552 16.1303 71.4121 16.0725C71.2722 16.0147 71.121 15.9895 70.9699 15.9987C70.8188 16.008 70.6718 16.0515 70.54 16.126L60.616 21.694C60.3987 21.8312 60.2424 22.0466 60.1794 22.2958C60.1165 22.545 60.1517 22.8089 60.2778 23.0329C60.4039 23.2568 60.6113 23.4238 60.857 23.4992C61.1027 23.5745 61.368 23.5526 61.598 23.438L70.416 18.488L79.83 51.54L63.8 61.338L59.992 30.876C59.9591 30.6126 59.823 30.3731 59.6135 30.2101C59.404 30.0471 59.1384 29.9741 58.875 30.007C58.6117 30.0398 58.3722 30.176 58.2092 30.3855C58.0462 30.595 57.9731 30.8606 58.006 31.124L61.82 61.642L42 56.232V50.772C42 50.5067 41.8947 50.2524 41.7071 50.0648C41.5196 49.8773 41.2652 49.772 41 49.772C40.7348 49.772 40.4805 49.8773 40.2929 50.0648C40.1054 50.2524 40 50.5067 40 50.772V56.232L20.178 61.642L23.992 31.124C24.0083 30.9936 23.9988 30.8612 23.9639 30.7345C23.929 30.6078 23.8696 30.4892 23.7889 30.3855C23.7082 30.2818 23.6078 30.1949 23.4936 30.13C23.3793 30.065 23.2534 30.0232 23.123 30.007C22.9926 29.9907 22.8603 30.0002 22.7336 30.0351C22.6069 30.0699 22.4883 30.1294 22.3846 30.2101C22.2808 30.2908 22.194 30.3911 22.1291 30.5054C22.0641 30.6196 22.0223 30.7456 22.006 30.876L18.2 61.338L2.17003 51.542L11.584 18.492L20.402 23.442C20.632 23.5566 20.8973 23.5785 21.1431 23.5032C21.3888 23.4278 21.5961 23.2608 21.7222 23.0369C21.8483 22.8129 21.8836 22.549 21.8206 22.2998C21.7577 22.0506 21.6014 21.8352 21.384 21.698L11.458 16.128C11.3266 16.0527 11.1796 16.0085 11.0284 15.9988C10.8772 15.9892 10.7258 16.0143 10.5858 16.0722C10.4458 16.1301 10.321 16.2193 10.2208 16.333C10.1207 16.4467 10.0479 16.5818 10.008 16.728L0.0400263 51.728C-0.0202625 51.9379 -0.00985181 52.1619 0.0696551 52.3653C0.149162 52.5688 0.293355 52.7405 0.480026 52.854L18.478 63.854Z" fill="#699BF7"/>
<path d="M40.322 46.736C40.5056 46.9055 40.746 47.0001 40.9958 47.0012C41.2457 47.0023 41.4869 46.9098 41.672 46.742C42.338 46.136 58 31.764 58 17C58 7.466 50.534 0 41 0C31.466 0 24 7.466 24 17C24 31.508 39.656 46.12 40.322 46.736V46.736ZM41 2C49.55 2 56 8.448 56 17C56 29.194 44.014 41.674 41.006 44.614C38.004 41.64 26 28.996 26 17C26 8.448 32.45 2 41 2Z" fill="#699BF7"/>
<path d="M50 17C50 12.038 45.962 8 41 8C36.038 8 32 12.038 32 17C32 21.962 36.038 26 41 26C45.962 26 50 21.962 50 17ZM41 24C37.14 24 34 20.86 34 17C34 13.14 37.14 10 41 10C44.86 10 48 13.14 48 17C48 20.86 44.86 24 41 24Z" fill="#699BF7"/>
</svg>
