<svg width="128" height="128" viewBox="0 0 128 128" fill="none" xmlns="http://www.w3.org/2000/svg">
<path d="M54.4 54.4C54.4 56.0974 53.7257 57.7253 52.5255 58.9255C51.3252 60.1258 49.6974 60.8 48 60.8C46.3026 60.8 44.6747 60.1258 43.4745 58.9255C42.2743 57.7253 41.6 56.0974 41.6 54.4C41.6 52.7027 42.2743 51.0748 43.4745 49.8746C44.6747 48.6743 46.3026 48 48 48C49.6974 48 51.3252 48.6743 52.5255 49.8746C53.7257 51.0748 54.4 52.7027 54.4 54.4V54.4ZM80 60.8C81.6974 60.8 83.3252 60.1258 84.5255 58.9255C85.7257 57.7253 86.4 56.0974 86.4 54.4C86.4 52.7027 85.7257 51.0748 84.5255 49.8746C83.3252 48.6743 81.6974 48 80 48C78.3026 48 76.6747 48.6743 75.4745 49.8746C74.2743 51.0748 73.6 52.7027 73.6 54.4C73.6 56.0974 74.2743 57.7253 75.4745 58.9255C76.6747 60.1258 78.3026 60.8 80 60.8V60.8ZM81.9392 76.8C73.7856 76.8 65.8112 79.2128 59.0272 83.7376C58.3481 84.2191 57.8834 84.9463 57.7317 85.7648C57.58 86.5833 57.7532 87.4287 58.2146 88.1216C58.6759 88.8145 59.3891 89.3003 60.2028 89.476C61.0165 89.6516 61.8667 89.5033 62.5728 89.0625C68.3079 85.2391 75.0465 83.1992 81.9392 83.2H87.04C87.8887 83.2 88.7026 82.8629 89.3027 82.2628C89.9028 81.6627 90.24 80.8487 90.24 80C90.24 79.1514 89.9028 78.3374 89.3027 77.7373C88.7026 77.1372 87.8887 76.8 87.04 76.8H81.9392ZM12.8 64C12.8 50.421 18.1943 37.398 27.7961 27.7962C37.398 18.1943 50.4209 12.8 64 12.8C77.5791 12.8 90.602 18.1943 100.204 27.7962C109.806 37.398 115.2 50.421 115.2 64C115.2 77.5791 109.806 90.6021 100.204 100.204C90.602 109.806 77.5791 115.2 64 115.2C50.4209 115.2 37.398 109.806 27.7961 100.204C18.1943 90.6021 12.8 77.5791 12.8 64V64ZM64 19.2C58.1168 19.2 52.2912 20.3588 46.8558 22.6102C41.4204 24.8617 36.4817 28.1616 32.3216 32.3217C28.1615 36.4817 24.8616 41.4204 22.6102 46.8558C20.3588 52.2912 19.2 58.1168 19.2 64C19.2 69.8833 20.3588 75.7089 22.6102 81.1443C24.8616 86.5797 28.1615 91.5184 32.3216 95.6784C36.4817 99.8385 41.4204 103.138 46.8558 105.39C52.2912 107.641 58.1168 108.8 64 108.8C75.8817 108.8 87.2767 104.08 95.6784 95.6784C104.08 87.2768 108.8 75.8817 108.8 64C108.8 52.1184 104.08 40.7233 95.6784 32.3217C87.2767 23.92 75.8817 19.2 64 19.2Z" fill="#699BF7"/>
</svg>
