<svg width="64" height="64" viewBox="0 0 64 64" fill="none" xmlns="http://www.w3.org/2000/svg">
<path d="M32 28H36V32H32V28ZM40 28H44V32H40V28ZM48 28H52V32H48V28ZM32 36H36V40H32V36ZM40 36H44V40H40V36ZM48 36H52V40H48V36ZM32 44H36V48H32V44ZM40 44H44V48H40V44ZM48 44H52V48H48V44ZM32 20H52V24H32V20Z" fill="#699BF7"/>
<path d="M56 12H28V10C27.9989 8.93946 27.5772 7.92266 26.8273 7.17274C26.0773 6.42283 25.0605 6.00106 24 6H16C14.9395 6.00106 13.9227 6.42283 13.1727 7.17274C12.4228 7.92266 12.0011 8.93946 12 10V12H8C6.93946 12.0011 5.92266 12.4228 5.17274 13.1727C4.42283 13.9227 4.00106 14.9395 4 16V52C4.00106 53.0605 4.42283 54.0773 5.17274 54.8273C5.92266 55.5772 6.93946 55.9989 8 56H56C57.0605 55.9989 58.0773 55.5772 58.8273 54.8273C59.5772 54.0773 59.9989 53.0605 60 52V16C59.9989 14.9395 59.5772 13.9227 58.8273 13.1727C58.0773 12.4228 57.0605 12.0011 56 12V12ZM16 10H24V44H16V10ZM56 52H8V16H12V44C12.0011 45.0605 12.4228 46.0773 13.1727 46.8273C13.9227 47.5772 14.9395 47.9989 16 48H24C25.0605 47.9989 26.0773 47.5772 26.8273 46.8273C27.5772 46.0773 27.9989 45.0605 28 44V16H56V52Z" fill="#699BF7"/>
</svg>
