<svg width="25" height="25" viewBox="0 0 25 25" fill="none" xmlns="http://www.w3.org/2000/svg">
<path d="M12.5 3.125C17.6694 3.125 21.875 7.33057 21.875 12.5C21.875 17.6694 17.6694 21.875 12.5 21.875C7.33057 21.875 3.125 17.6694 3.125 12.5C3.125 7.33057 7.33057 3.125 12.5 3.125ZM8.0415 16.9585C8.188 17.1049 8.38664 17.1871 8.59375 17.1871C8.80086 17.1871 8.9995 17.1049 9.146 16.9585L11.2378 14.8672C12.1215 15.4753 13.2006 15.7312 14.2632 15.5847C15.3259 15.4381 16.2955 14.8998 16.9816 14.0752C17.6678 13.2507 18.0211 12.1994 17.9721 11.1278C17.9231 10.0562 17.4754 9.04161 16.7169 8.28308C15.9584 7.52455 14.9438 7.07687 13.8722 7.0279C12.8006 6.97892 11.7493 7.33218 10.9248 8.01836C10.1002 8.70453 9.56185 9.67409 9.41533 10.7368C9.26881 11.7994 9.52471 12.8785 10.1328 13.7622L8.0415 15.854C7.8951 16.0005 7.81286 16.1991 7.81286 16.4062C7.81286 16.6134 7.8951 16.812 8.0415 16.9585Z" fill="black"/>
<path d="M13.6719 14.0625C12.1617 14.0625 10.9375 12.8383 10.9375 11.3281C10.9375 9.81797 12.1617 8.59375 13.6719 8.59375C15.182 8.59375 16.4062 9.81797 16.4062 11.3281C16.4062 12.8383 15.182 14.0625 13.6719 14.0625Z" fill="black"/>
</svg>
