<svg width="64" height="64" viewBox="0 0 64 64" fill="none" xmlns="http://www.w3.org/2000/svg">
<path d="M32 4C16.5375 4 4 16.5375 4 32C4 47.4625 16.5375 60 32 60C47.4625 60 60 47.4625 60 32C60 16.5375 47.4625 4 32 4ZM43.125 38.6875H40.1937C39.5562 38.6875 38.95 38.3812 38.575 37.8625L32 28.775L25.425 37.8625C25.05 38.3812 24.45 38.6875 23.8062 38.6875H20.875C20.4688 38.6875 20.2313 38.225 20.4688 37.8937L31.5938 22.5187C31.7938 22.2437 32.2 22.2437 32.4 22.5187L43.525 37.8937C43.7688 38.225 43.5312 38.6875 43.125 38.6875Z" fill="#699BF7"/>
</svg>
