<?xml version="1.0" encoding="utf-8"?>
<!-- Svg Vector Icons : http://www.onlinewebfonts.com/icon -->
<!DOCTYPE svg PUBLIC "-//W3C//DTD SVG 1.1//EN" "http://www.w3.org/Graphics/SVG/1.1/DTD/svg11.dtd">
<svg version="1.1" xmlns="http://www.w3.org/2000/svg" xmlns:xlink="http://www.w3.org/1999/xlink" x="0px" y="0px" viewBox="0 0 1000 1000" enable-background="new 0 0 1000 1000" xml:space="preserve">
<metadata> Svg Vector Icons : http://www.onlinewebfonts.com/icon </metadata>
<g><path d="M457.9,10c28.1,0,56.1,0,84.2,0C801.4,49.3,950.7,198.6,990,457.9c0,28.1,0,56.1,0,84.2C950.7,801.4,801.4,950.7,542.1,990c-28.1,0-56.1,0-84.2,0C198.6,950.7,49.3,801.4,10,542.1c0-28.1,0-56.1,0-84.2C49.3,198.6,198.6,49.3,457.9,10z M622.5,590c-7.4,15.5-23.5,26.5-26.8,40.2c-4.6,18.9-3.8,55.7,3.8,78.5c5,14.9,23.5,32.1,40.2,42.1c32.5,19.6,89.7,36.1,128.2,55.5c7.4,3.7,33.6,23.4,38.3,23c9-0.8,34-34.2,42.1-44c40.3-49.2,71.4-107.5,88-174.2c26.7-106.7,6.6-224-26.8-296.7c-65-141.5-217.8-278.1-436.4-264.1c-189.7,12.1-334,133.2-392.4,285.2c-73,189.9-2.7,400.3,114.8,493.8c27.5-22.4,67.8-36,111-53.6c32.8-13.4,88.9-33.2,97.6-68.9c5.6-23-1.4-46.7,1.9-78.5c-22.6-25.3-39.6-56.1-45.9-97.6c-34.7-7.7-46.3-77-19.1-101.4c-28-89.1-20.4-195.5,34.5-239.3c50-39.9,178-55,216.3,0c104.2,7.2,96,154.8,68.9,241.2c23.9,21.5,12.9,92.6-21.1,101.4C634.3,554.2,631.4,571.3,622.5,590z"/></g>
</svg>